<?xml version="1.0" encoding="utf-8"?>
<!-- Generator: Adobe Illustrator 15.0.2, SVG Export Plug-In . SVG Version: 6.00 Build 0)  -->
<!DOCTYPE svg PUBLIC "-//W3C//DTD SVG 1.1//EN" "http://www.w3.org/Graphics/SVG/1.1/DTD/svg11.dtd">
<svg version="1.1" id="Layer_1" xmlns="http://www.w3.org/2000/svg" xmlns:xlink="http://www.w3.org/1999/xlink" x="0px" y="0px"
	 width="133.965px" height="133.965px" viewBox="0 432.965 133.965 133.965" enable-background="new 0 432.965 133.965 133.965"
	 xml:space="preserve">
<path fill="#FAFAFA" d="M12.816,509.018c-5.031,0-9.109-4.025-9.109-9.07c0-5.01,4.091-9.07,9.109-9.07h99.714
	c5.031,0,9.11,4.025,9.11,9.07c0,5.01-4.091,9.07-9.11,9.07H12.816z"/>
<path fill="#FAFAFA" d="M108.359,499.948l-38.939-38.94c-3.543-3.542-3.543-9.286,0-12.827c3.542-3.543,9.285-3.543,12.828,0
	l45.354,45.354c1.771,1.771,2.656,4.093,2.656,6.414s-0.886,4.643-2.656,6.414l-45.354,45.354c-3.543,3.542-9.286,3.542-12.828,0
	c-3.543-3.542-3.543-9.286,0-12.828L108.359,499.948z"/>
</svg>
