<?xml version="1.0" encoding="utf-8"?>
<!-- Generator: Adobe Illustrator 15.0.2, SVG Export Plug-In . SVG Version: 6.00 Build 0)  -->
<!DOCTYPE svg PUBLIC "-//W3C//DTD SVG 1.1//EN" "http://www.w3.org/Graphics/SVG/1.1/DTD/svg11.dtd">
<svg version="1.1" id="Layer_1" xmlns="http://www.w3.org/2000/svg" xmlns:xlink="http://www.w3.org/1999/xlink" x="0px" y="0px"
	 width="39.685px" height="39.685px" viewBox="0 0 39.685 39.685" enable-background="new 0 0 39.685 39.685" xml:space="preserve">
<path fill="#FAFAFA" d="M35.557,10.285h-9.771V7.859h9.771V10.285z M19.286,20.234c0.63,0.979,0.946,2.162,0.946,3.554
	c0,1.439-0.355,2.729-1.079,3.87c-0.458,0.754-1.029,1.39-1.717,1.906c-0.771,0.595-1.687,1-2.737,1.217
	c-1.054,0.221-2.195,0.328-3.424,0.328H0.35V6.852h11.715c2.953,0.049,5.047,0.904,6.281,2.584c0.743,1.031,1.11,2.266,1.11,3.704
	c0,1.483-0.371,2.669-1.12,3.57c-0.417,0.506-1.032,0.967-1.849,1.381C17.724,18.543,18.66,19.255,19.286,20.234 M5.943,16.417
	h5.135c1.055,0,1.907-0.201,2.563-0.603c0.658-0.399,0.984-1.111,0.984-2.133c0-1.13-0.435-1.877-1.303-2.237
	c-0.747-0.249-1.703-0.382-2.862-0.382H5.943V16.417z M15.119,23.44c0-1.261-0.514-2.129-1.542-2.598
	c-0.574-0.265-1.387-0.4-2.426-0.411H5.943v6.466h5.128c1.051,0,1.866-0.138,2.455-0.426C14.588,25.941,15.119,24.935,15.119,23.44
	 M39.18,19.495c0.119,0.794,0.172,1.943,0.15,3.452H26.68c0.07,1.743,0.673,2.966,1.815,3.664c0.688,0.438,1.523,0.653,2.504,0.653
	c1.031,0,1.873-0.262,2.521-0.797c0.354-0.286,0.664-0.688,0.934-1.194h4.637c-0.123,1.033-0.681,2.079-1.684,3.143
	c-1.555,1.688-3.735,2.536-6.536,2.536c-2.312,0-4.351-0.716-6.12-2.139c-1.765-1.428-2.647-3.745-2.647-6.961
	c0-3.012,0.795-5.322,2.389-6.927c1.603-1.608,3.671-2.408,6.217-2.408c1.51,0,2.873,0.268,4.087,0.811
	c1.21,0.544,2.21,1.397,2.999,2.571C38.507,16.936,38.967,18.131,39.18,19.495 M34.617,19.948c-0.085-1.208-0.489-2.12-1.214-2.746
	c-0.72-0.626-1.618-0.94-2.693-0.94c-1.168,0-2.068,0.335-2.709,0.998c-0.645,0.658-1.048,1.554-1.213,2.688H34.617z"/>
</svg>
