<?xml version="1.0" encoding="utf-8"?>
<!-- Generator: Adobe Illustrator 15.0.2, SVG Export Plug-In . SVG Version: 6.00 Build 0)  -->
<!DOCTYPE svg PUBLIC "-//W3C//DTD SVG 1.1//EN" "http://www.w3.org/Graphics/SVG/1.1/DTD/svg11.dtd">
<svg version="1.1" id="Layer_1" xmlns="http://www.w3.org/2000/svg" xmlns:xlink="http://www.w3.org/1999/xlink" x="0px" y="0px"
	 width="39.685px" height="39.685px" viewBox="0 0 39.685 39.685" enable-background="new 0 0 39.685 39.685" xml:space="preserve">
<path class="fb" fill="#FAFAFA" d="M32.561,4.295H7.124c-2.037,0-3.688,1.651-3.688,3.688v23.792c0,2.035,1.65,3.688,3.688,3.688h12.97V24.291
	h-2.851c-0.231,0-0.42-0.189-0.42-0.42v-4.265c0-0.232,0.188-0.42,0.42-0.42h2.993v-3.168c-0.061-0.343-0.311-2.32,1.485-3.973
	c1.621-1.491,3.672-1.607,4.264-1.607c0.078,0,0.131,0.002,0.156,0.004h3.4c0.229,0,0.42,0.188,0.42,0.418v3.967
	c0,0.232-0.189,0.42-0.42,0.42h-2.469c-0.867,0-1.308,0.412-1.308,1.229v2.709h3.774c0.119,0,0.234,0.051,0.314,0.141
	c0.078,0.091,0.115,0.209,0.102,0.328l-0.498,4.319c-0.022,0.211-0.202,0.371-0.416,0.371h-3.276v11.119h6.795
	c2.039,0,3.689-1.652,3.689-3.689V7.983C36.25,5.946,34.6,4.295,32.561,4.295"/>
</svg>
