<?xml version="1.0" encoding="utf-8"?>
<!-- Generator: Adobe Illustrator 15.0.2, SVG Export Plug-In . SVG Version: 6.00 Build 0)  -->
<!DOCTYPE svg PUBLIC "-//W3C//DTD SVG 1.1//EN" "http://www.w3.org/Graphics/SVG/1.1/DTD/svg11.dtd">
<svg version="1.1" id="Layer_1" xmlns="http://www.w3.org/2000/svg" xmlns:xlink="http://www.w3.org/1999/xlink" x="0px" y="0px"
	 width="32.813px" height="31.168px" viewBox="0 0 32.813 31.168" enable-background="new 0 0 32.813 31.168" xml:space="preserve">
<path fill="#FAFAFA" d="M29.125,0H3.688C1.651,0,0,1.651,0,3.688v23.792c0,2.036,1.651,3.688,3.688,3.688h12.969V19.995h-2.85
	c-0.232,0-0.42-0.188-0.42-0.42V15.31c0-0.232,0.188-0.42,0.42-0.42H16.8v-3.167c-0.061-0.343-0.311-2.321,1.485-3.973
	c1.621-1.491,3.672-1.607,4.264-1.607c0.078,0,0.131,0.002,0.156,0.003h3.4c0.229,0,0.42,0.188,0.42,0.419v3.967
	c0,0.231-0.189,0.419-0.42,0.419h-2.469c-0.867,0-1.308,0.413-1.308,1.229v2.709h3.774c0.119,0,0.234,0.051,0.314,0.14
	c0.078,0.091,0.115,0.209,0.102,0.328l-0.498,4.321c-0.022,0.211-0.202,0.371-0.416,0.371h-3.276v11.118h6.795
	c2.039,0,3.689-1.651,3.689-3.688V3.688C32.813,1.651,31.164,0,29.125,0"/>
<rect fill="none" width="32.813" height="31.168"/>
</svg>
