<?xml version="1.0" encoding="utf-8"?>
<!-- Generator: Adobe Illustrator 15.0.2, SVG Export Plug-In . SVG Version: 6.00 Build 0)  -->
<!DOCTYPE svg PUBLIC "-//W3C//DTD SVG 1.1//EN" "http://www.w3.org/Graphics/SVG/1.1/DTD/svg11.dtd">
<svg version="1.1" id="Layer_1" xmlns="http://www.w3.org/2000/svg" xmlns:xlink="http://www.w3.org/1999/xlink" x="0px" y="0px"
	 width="39.685px" height="39.685px" viewBox="0 0 39.685 39.685" enable-background="new 0 0 39.685 39.685" xml:space="preserve">
<g>
	<path fill="#FAFAFA" d="M25.45,4.891H14.236c-5.161,0-9.344,4.185-9.344,9.343v11.214c0,5.16,4.184,9.345,9.344,9.345H25.45
		c5.159,0,9.344-4.185,9.344-9.345V14.234C34.793,9.076,30.609,4.891,25.45,4.891 M31.99,25.449c0,3.606-2.935,6.54-6.54,6.54
		H14.236c-3.607,0-6.54-2.934-6.54-6.54V14.234c0-3.606,2.933-6.54,6.54-6.54H25.45c3.605,0,6.54,2.933,6.54,6.54V25.449z"/>
	<path fill="#FAFAFA" d="M19.842,12.366c-4.126,0-7.474,3.347-7.474,7.476c0,4.128,3.348,7.475,7.474,7.475
		c4.129,0,7.476-3.347,7.476-7.475C27.318,15.713,23.971,12.366,19.842,12.366 M19.842,24.513c-2.574,0-4.672-2.096-4.672-4.671
		c0-2.578,2.098-4.672,4.672-4.672c2.575,0,4.672,2.094,4.672,4.672C24.514,22.417,22.417,24.513,19.842,24.513"/>
	<path fill="#FAFAFA" d="M27.878,10.81c0.551,0,0.996,0.446,0.996,0.996c0,0.55-0.445,0.997-0.996,0.997
		c-0.55,0-0.996-0.446-0.996-0.997C26.882,11.256,27.329,10.81,27.878,10.81"/>
</g>
</svg>
