<?xml version="1.0" encoding="utf-8"?>
<!-- Generator: Adobe Illustrator 15.0.2, SVG Export Plug-In . SVG Version: 6.00 Build 0)  -->
<!DOCTYPE svg PUBLIC "-//W3C//DTD SVG 1.1//EN" "http://www.w3.org/Graphics/SVG/1.1/DTD/svg11.dtd">
<svg version="1.1" id="Layer_1" xmlns="http://www.w3.org/2000/svg" xmlns:xlink="http://www.w3.org/1999/xlink" x="0px" y="0px"
	 width="39.685px" height="39.685px" viewBox="0 0 39.685 39.685" enable-background="new 0 0 39.685 39.685" xml:space="preserve">
<g>
	<path fill="#FAFAFA" d="M11.938,14.233H5.621c-0.281,0-0.506,0.227-0.506,0.507v20.294c0,0.279,0.225,0.506,0.506,0.506h6.317
		c0.28,0,0.507-0.227,0.507-0.506V14.74C12.443,14.46,12.217,14.233,11.938,14.233"/>
	<path fill="#FAFAFA" d="M8.781,4.145c-2.298,0-4.168,1.868-4.168,4.163c0,2.297,1.871,4.166,4.168,4.166
		c2.297,0,4.165-1.869,4.165-4.166C12.946,6.013,11.077,4.145,8.781,4.145"/>
	<path fill="#FAFAFA" d="M28.003,13.728c-2.537,0-4.412,1.091-5.549,2.33V14.74c0-0.28-0.229-0.507-0.508-0.507h-6.05
		c-0.281,0-0.508,0.227-0.508,0.507v20.294c0,0.279,0.227,0.506,0.508,0.506h6.302c0.283,0,0.51-0.227,0.51-0.506V24.994
		c0-3.384,0.918-4.702,3.277-4.702c2.568,0,2.771,2.113,2.771,4.876v9.867c0,0.279,0.229,0.506,0.508,0.506h6.307
		c0.279,0,0.506-0.227,0.506-0.506v-11.13C36.078,18.872,35.119,13.728,28.003,13.728"/>
</g>
</svg>
