<?xml version="1.0" encoding="utf-8"?>
<!-- Generator: Adobe Illustrator 15.0.2, SVG Export Plug-In . SVG Version: 6.00 Build 0)  -->
<!DOCTYPE svg PUBLIC "-//W3C//DTD SVG 1.1//EN" "http://www.w3.org/Graphics/SVG/1.1/DTD/svg11.dtd">
<svg version="1.1" id="Layer_1" xmlns="http://www.w3.org/2000/svg" xmlns:xlink="http://www.w3.org/1999/xlink" x="0px" y="0px"
	 width="32.813px" height="31.168px" viewBox="0 0 32.813 31.168" enable-background="new 0 0 32.813 31.168" xml:space="preserve">
<rect fill="none" width="32.813" height="31.168"/>
<path fill="#FAFAFA" d="M8.152,10.249H1.95c-0.275,0-0.497,0.223-0.497,0.498v19.924c0,0.274,0.222,0.497,0.497,0.497h6.202
	c0.275,0,0.498-0.223,0.498-0.497V10.747C8.649,10.472,8.426,10.249,8.152,10.249"/>
<path fill="#FAFAFA" d="M5.053,0.344c-2.257,0-4.093,1.834-4.093,4.087c0,2.255,1.836,4.09,4.093,4.09
	c2.254,0,4.089-1.835,4.089-4.09C9.142,2.178,7.307,0.344,5.053,0.344"/>
<path fill="#FAFAFA" d="M23.926,9.753c-2.49,0-4.332,1.071-5.448,2.287v-1.293c0-0.275-0.224-0.498-0.498-0.498h-5.94
	c-0.276,0-0.499,0.223-0.499,0.498v19.924c0,0.274,0.223,0.497,0.499,0.497h6.188c0.276,0,0.498-0.223,0.498-0.497v-9.857
	c0-3.322,0.902-4.617,3.219-4.617c2.521,0,2.722,2.074,2.722,4.787v9.688c0,0.274,0.224,0.497,0.499,0.497h6.19
	c0.274,0,0.497-0.223,0.497-0.497V19.744C31.853,14.803,30.911,9.753,23.926,9.753"/>
</svg>
