<?xml version="1.0" encoding="utf-8"?>
<!-- Generator: Adobe Illustrator 15.0.2, SVG Export Plug-In . SVG Version: 6.00 Build 0)  -->
<!DOCTYPE svg PUBLIC "-//W3C//DTD SVG 1.1//EN" "http://www.w3.org/Graphics/SVG/1.1/DTD/svg11.dtd">
<svg version="1.1" id="Layer_1" xmlns="http://www.w3.org/2000/svg" xmlns:xlink="http://www.w3.org/1999/xlink" x="0px" y="0px"
	 width="39.685px" height="39.685px" viewBox="0 0 39.685 39.685" enable-background="new 0 0 39.685 39.685" xml:space="preserve">
<path fill="#FAFAFA" d="M38.016,7.856c-0.599,0.265-1.212,0.49-1.841,0.671c0.742-0.842,1.311-1.832,1.656-2.914
	C37.91,5.37,37.83,5.105,37.63,4.945c-0.2-0.159-0.477-0.178-0.695-0.047c-1.336,0.791-2.773,1.36-4.283,1.692
	c-1.521-1.485-3.586-2.331-5.721-2.331c-4.507,0-8.173,3.666-8.173,8.172c0,0.355,0.022,0.708,0.067,1.056
	c-5.591-0.491-10.792-3.239-14.361-7.619C4.336,5.712,4.141,5.628,3.94,5.645c-0.2,0.016-0.38,0.129-0.482,0.303
	C2.733,7.19,2.351,8.61,2.351,10.057c0,1.97,0.703,3.837,1.945,5.298c-0.378-0.131-0.744-0.295-1.095-0.489
	c-0.188-0.105-0.417-0.103-0.603,0.003c-0.186,0.108-0.304,0.305-0.309,0.52v0.108c0,2.939,1.582,5.586,4,7.028
	c-0.208-0.021-0.416-0.051-0.623-0.09c-0.212-0.038-0.431,0.033-0.575,0.196c-0.144,0.161-0.191,0.388-0.125,0.595
	c0.896,2.796,3.2,4.852,5.987,5.478c-2.311,1.446-4.954,2.204-7.728,2.204c-0.579,0-1.161-0.032-1.731-0.1
	c-0.283-0.034-0.554,0.133-0.65,0.401c-0.097,0.271,0.007,0.569,0.247,0.726c3.564,2.284,7.686,3.49,11.917,3.49
	c8.321,0,13.526-3.921,16.426-7.213c3.618-4.105,5.692-9.538,5.692-14.906c0-0.224-0.004-0.451-0.01-0.676
	c1.428-1.075,2.656-2.376,3.655-3.873c0.153-0.227,0.136-0.527-0.04-0.736S38.267,7.746,38.016,7.856"/>
</svg>
