<?xml version="1.0" encoding="utf-8"?>
<!-- Generator: Adobe Illustrator 15.0.2, SVG Export Plug-In . SVG Version: 6.00 Build 0)  -->
<!DOCTYPE svg PUBLIC "-//W3C//DTD SVG 1.1//EN" "http://www.w3.org/Graphics/SVG/1.1/DTD/svg11.dtd">
<svg version="1.1" id="Layer_1" xmlns="http://www.w3.org/2000/svg" xmlns:xlink="http://www.w3.org/1999/xlink" x="0px" y="0px"
	 width="34.689px" height="23.849px" viewBox="0 0 34.689 23.849" enable-background="new 0 0 34.689 23.849" xml:space="preserve">
<path fill="#FAFAFA" d="M33.216,2.298c-0.941-1.674-1.962-1.982-4.042-2.099C27.097,0.058,21.874,0,17.349,0
	C12.816,0,7.591,0.058,5.516,0.197C3.441,0.316,2.418,0.622,1.468,2.298C0.499,3.969,0,6.849,0,11.917v0.007v0.008v0.003
	c0,5.048,0.499,7.948,1.468,9.604c0.95,1.673,1.971,1.977,4.046,2.117c2.077,0.122,7.302,0.193,11.835,0.193
	c4.525,0,9.748-0.071,11.827-0.19c2.08-0.141,3.101-0.444,4.041-2.118c0.979-1.655,1.473-4.557,1.473-9.603v-0.011v-0.008
	C34.689,6.849,34.195,3.969,33.216,2.298 M13.009,18.429V5.42l10.84,6.504L13.009,18.429z"/>
</svg>
